<svg xmlns="http://www.w3.org/2000/svg" width="700" height="190" viewBox="0 0 700 190" role="img" aria-label="Kavya Chaturvedi achievement badges">
<title>Kavya Chaturvedi &#8211; Achievements</title>
<defs>
  <linearGradient id="trophyBg" x1="0%" y1="0%" x2="100%" y2="100%">
    <stop offset="0%" stop-color="#fffbf3"/>
    <stop offset="100%" stop-color="#f3e2bd"/>
  </linearGradient>
  <clipPath id="trophyOuter"><rect x="0" y="0" width="700" height="190" rx="20"/></clipPath>
</defs>
<g clip-path="url(#trophyOuter)">
<rect x="0" y="0" width="700" height="190" fill="url(#trophyBg)"/>
<g opacity="0" transform="translate(14.0,22) scale(0.7)">
  <animate attributeName="opacity" from="0" to="1" begin="0.30s" dur="0.45s" fill="freeze"/>
  <animateTransform attributeName="transform" type="translate" additive="sum" from="0 18" to="0 0" begin="0.30s" dur="0.5s" fill="freeze" calcMode="spline" keySplines="0.3 1.2 0.4 1"/>
  <animateTransform attributeName="transform" type="scale" additive="sum" from="0.7" to="1" begin="0.30s" dur="0.5s" fill="freeze" calcMode="spline" keySplines="0.3 1.4 0.4 1"/>

  <clipPath id="trophyClip0"><rect x="0" y="0" width="128" height="150" rx="16"/></clipPath>

  <rect x="0" y="0" width="128" height="150" rx="16" fill="#fffbf3" stroke="#c9822f" stroke-width="1.6" stroke-opacity="0.65"/>

  <g clip-path="url(#trophyClip0)">
    <circle cx="64.0" cy="46" r="30" fill="#c9822f" opacity="0.14"/>
    <circle cx="64.0" cy="46" r="30" fill="none" stroke="#c9822f" stroke-width="2.4" opacity="0.85">
      <animate attributeName="r" values="28;31;28" dur="2.6s" begin="0.80s" repeatCount="indefinite"/>
    </circle>
    <g><line x1="74.4" y1="46.0" x2="79.2" y2="46.0" stroke="#c9822f" stroke-width="4.5" stroke-linecap="round"/><line x1="71.4" y1="53.4" x2="74.7" y2="56.7" stroke="#c9822f" stroke-width="4.5" stroke-linecap="round"/><line x1="64.0" y1="56.4" x2="64.0" y2="61.2" stroke="#c9822f" stroke-width="4.5" stroke-linecap="round"/><line x1="56.6" y1="53.4" x2="53.3" y2="56.7" stroke="#c9822f" stroke-width="4.5" stroke-linecap="round"/><line x1="53.6" y1="46.0" x2="48.8" y2="46.0" stroke="#c9822f" stroke-width="4.5" stroke-linecap="round"/><line x1="56.6" y1="38.6" x2="53.3" y2="35.3" stroke="#c9822f" stroke-width="4.5" stroke-linecap="round"/><line x1="64.0" y1="35.6" x2="64.0" y2="30.8" stroke="#c9822f" stroke-width="4.5" stroke-linecap="round"/><line x1="71.4" y1="38.6" x2="74.7" y2="35.3" stroke="#c9822f" stroke-width="4.5" stroke-linecap="round"/><circle cx="64.0" cy="46" r="8.8" fill="none" stroke="#c9822f" stroke-width="4"/><circle cx="64.0" cy="46" r="3.2" fill="#c9822f"/></g>

    <text x="64.0" y="98" text-anchor="middle" font-family="'Segoe UI',sans-serif" font-size="11.5" font-weight="700" fill="#3d2314">Backend Builder</text>

    <rect x="45.0" y="110" width="38" height="20" rx="10" fill="#c9822f"/>
    <text x="64.0" y="124" text-anchor="middle" font-family="'Segoe UI',sans-serif" font-size="12" font-weight="800" fill="#fffaf0">S</text>

    <!-- shine sweep -->
    <rect x="-60" y="0" width="46" height="150" fill="#ffffff" opacity="0.5" transform="skewX(-20)">
      <animate attributeName="x" values="-60;180" begin="1.60s" dur="2.8s" repeatCount="indefinite"/>
    </rect>
  </g>
</g><g opacity="0" transform="translate(150.0,22) scale(0.7)">
  <animate attributeName="opacity" from="0" to="1" begin="0.46s" dur="0.45s" fill="freeze"/>
  <animateTransform attributeName="transform" type="translate" additive="sum" from="0 18" to="0 0" begin="0.46s" dur="0.5s" fill="freeze" calcMode="spline" keySplines="0.3 1.2 0.4 1"/>
  <animateTransform attributeName="transform" type="scale" additive="sum" from="0.7" to="1" begin="0.46s" dur="0.5s" fill="freeze" calcMode="spline" keySplines="0.3 1.4 0.4 1"/>

  <clipPath id="trophyClip1"><rect x="0" y="0" width="128" height="150" rx="16"/></clipPath>

  <rect x="0" y="0" width="128" height="150" rx="16" fill="#fffbf3" stroke="#b5722a" stroke-width="1.6" stroke-opacity="0.65"/>

  <g clip-path="url(#trophyClip1)">
    <circle cx="64.0" cy="46" r="30" fill="#b5722a" opacity="0.14"/>
    <circle cx="64.0" cy="46" r="30" fill="none" stroke="#b5722a" stroke-width="2.4" opacity="0.85">
      <animate attributeName="r" values="28;31;28" dur="2.6s" begin="0.96s" repeatCount="indefinite"/>
    </circle>
    <g stroke="#b5722a" fill="#b5722a">
  <rect x="55.2" y="43.6" width="17.6" height="14.4" rx="4.5" fill="#b5722a" fill-opacity="0.9"/>
  <circle cx="60.5" cy="48.9" r="3.4" fill="#fffaf0"/>
  <circle cx="67.5" cy="48.9" r="3.4" fill="#fffaf0"/>
  <line x1="58.9" y1="37.2" x2="61.1" y2="41.2" stroke="#b5722a" stroke-width="3" stroke-linecap="round"/>
  <line x1="69.1" y1="37.2" x2="66.9" y2="41.2" stroke="#b5722a" stroke-width="3" stroke-linecap="round"/>
</g>

    <text x="64.0" y="98" text-anchor="middle" font-family="'Segoe UI',sans-serif" font-size="11.5" font-weight="700" fill="#3d2314">Android Craftsman</text>

    <rect x="45.0" y="110" width="38" height="20" rx="10" fill="#b5722a"/>
    <text x="64.0" y="124" text-anchor="middle" font-family="'Segoe UI',sans-serif" font-size="12" font-weight="800" fill="#fffaf0">A+</text>

    <!-- shine sweep -->
    <rect x="-60" y="0" width="46" height="150" fill="#ffffff" opacity="0.5" transform="skewX(-20)">
      <animate attributeName="x" values="-60;180" begin="1.76s" dur="2.8s" repeatCount="indefinite"/>
    </rect>
  </g>
</g><g opacity="0" transform="translate(286.0,22) scale(0.7)">
  <animate attributeName="opacity" from="0" to="1" begin="0.62s" dur="0.45s" fill="freeze"/>
  <animateTransform attributeName="transform" type="translate" additive="sum" from="0 18" to="0 0" begin="0.62s" dur="0.5s" fill="freeze" calcMode="spline" keySplines="0.3 1.2 0.4 1"/>
  <animateTransform attributeName="transform" type="scale" additive="sum" from="0.7" to="1" begin="0.62s" dur="0.5s" fill="freeze" calcMode="spline" keySplines="0.3 1.4 0.4 1"/>

  <clipPath id="trophyClip2"><rect x="0" y="0" width="128" height="150" rx="16"/></clipPath>

  <rect x="0" y="0" width="128" height="150" rx="16" fill="#fffbf3" stroke="#6b8a68" stroke-width="1.6" stroke-opacity="0.65"/>

  <g clip-path="url(#trophyClip2)">
    <circle cx="64.0" cy="46" r="30" fill="#6b8a68" opacity="0.14"/>
    <circle cx="64.0" cy="46" r="30" fill="none" stroke="#6b8a68" stroke-width="2.4" opacity="0.85">
      <animate attributeName="r" values="28;31;28" dur="2.6s" begin="1.12s" repeatCount="indefinite"/>
    </circle>
    <path d="M65.92 32.4 L56.0 47.92 L63.2 47.92 L61.12 59.6 L72.8 43.12 L65.28 43.12 Z" fill="#6b8a68"/>

    <text x="64.0" y="98" text-anchor="middle" font-family="'Segoe UI',sans-serif" font-size="11.5" font-weight="700" fill="#3d2314">API Architect</text>

    <rect x="45.0" y="110" width="38" height="20" rx="10" fill="#6b8a68"/>
    <text x="64.0" y="124" text-anchor="middle" font-family="'Segoe UI',sans-serif" font-size="12" font-weight="800" fill="#fffaf0">A</text>

    <!-- shine sweep -->
    <rect x="-60" y="0" width="46" height="150" fill="#ffffff" opacity="0.5" transform="skewX(-20)">
      <animate attributeName="x" values="-60;180" begin="1.92s" dur="2.8s" repeatCount="indefinite"/>
    </rect>
  </g>
</g><g opacity="0" transform="translate(422.0,22) scale(0.7)">
  <animate attributeName="opacity" from="0" to="1" begin="0.78s" dur="0.45s" fill="freeze"/>
  <animateTransform attributeName="transform" type="translate" additive="sum" from="0 18" to="0 0" begin="0.78s" dur="0.5s" fill="freeze" calcMode="spline" keySplines="0.3 1.2 0.4 1"/>
  <animateTransform attributeName="transform" type="scale" additive="sum" from="0.7" to="1" begin="0.78s" dur="0.5s" fill="freeze" calcMode="spline" keySplines="0.3 1.4 0.4 1"/>

  <clipPath id="trophyClip3"><rect x="0" y="0" width="128" height="150" rx="16"/></clipPath>

  <rect x="0" y="0" width="128" height="150" rx="16" fill="#fffbf3" stroke="#a85a2c" stroke-width="1.6" stroke-opacity="0.65"/>

  <g clip-path="url(#trophyClip3)">
    <circle cx="64.0" cy="46" r="30" fill="#a85a2c" opacity="0.14"/>
    <circle cx="64.0" cy="46" r="30" fill="none" stroke="#a85a2c" stroke-width="2.4" opacity="0.85">
      <animate attributeName="r" values="28;31;28" dur="2.6s" begin="1.28s" repeatCount="indefinite"/>
    </circle>
    <g fill="#a85a2c" opacity="0.92">
  <circle cx="58.9" cy="47.3" r="5.1"/>
  <circle cx="64.8" cy="44.1" r="6.4"/>
  <circle cx="70.4" cy="47.6" r="4.5"/>
  <rect x="55.2" y="46.8" width="17.6" height="5.6" rx="2.7"/>
</g>

    <text x="64.0" y="98" text-anchor="middle" font-family="'Segoe UI',sans-serif" font-size="11.5" font-weight="700" fill="#3d2314">Clean Coder</text>

    <rect x="45.0" y="110" width="38" height="20" rx="10" fill="#a85a2c"/>
    <text x="64.0" y="124" text-anchor="middle" font-family="'Segoe UI',sans-serif" font-size="12" font-weight="800" fill="#fffaf0">A</text>

    <!-- shine sweep -->
    <rect x="-60" y="0" width="46" height="150" fill="#ffffff" opacity="0.5" transform="skewX(-20)">
      <animate attributeName="x" values="-60;180" begin="2.08s" dur="2.8s" repeatCount="indefinite"/>
    </rect>
  </g>
</g><g opacity="0" transform="translate(558.0,22) scale(0.7)">
  <animate attributeName="opacity" from="0" to="1" begin="0.94s" dur="0.45s" fill="freeze"/>
  <animateTransform attributeName="transform" type="translate" additive="sum" from="0 18" to="0 0" begin="0.94s" dur="0.5s" fill="freeze" calcMode="spline" keySplines="0.3 1.2 0.4 1"/>
  <animateTransform attributeName="transform" type="scale" additive="sum" from="0.7" to="1" begin="0.94s" dur="0.5s" fill="freeze" calcMode="spline" keySplines="0.3 1.4 0.4 1"/>

  <clipPath id="trophyClip4"><rect x="0" y="0" width="128" height="150" rx="16"/></clipPath>

  <rect x="0" y="0" width="128" height="150" rx="16" fill="#fffbf3" stroke="#8a6f52" stroke-width="1.6" stroke-opacity="0.65"/>

  <g clip-path="url(#trophyClip4)">
    <circle cx="64.0" cy="46" r="30" fill="#8a6f52" opacity="0.14"/>
    <circle cx="64.0" cy="46" r="30" fill="none" stroke="#8a6f52" stroke-width="2.4" opacity="0.85">
      <animate attributeName="r" values="28;31;28" dur="2.6s" begin="1.44s" repeatCount="indefinite"/>
    </circle>
    <polygon points="64.0,30.0 67.9,40.6 79.2,41.1 70.4,48.1 73.4,58.9 64.0,52.7 54.6,58.9 57.6,48.1 48.8,41.1 60.1,40.6" fill="#8a6f52"/>

    <text x="64.0" y="98" text-anchor="middle" font-family="'Segoe UI',sans-serif" font-size="11.5" font-weight="700" fill="#3d2314">Consistent Committer</text>

    <rect x="45.0" y="110" width="38" height="20" rx="10" fill="#8a6f52"/>
    <text x="64.0" y="124" text-anchor="middle" font-family="'Segoe UI',sans-serif" font-size="12" font-weight="800" fill="#fffaf0">B+</text>

    <!-- shine sweep -->
    <rect x="-60" y="0" width="46" height="150" fill="#ffffff" opacity="0.5" transform="skewX(-20)">
      <animate attributeName="x" values="-60;180" begin="2.24s" dur="2.8s" repeatCount="indefinite"/>
    </rect>
  </g>
</g>
<rect x="0.75" y="0.75" width="698.5" height="188.5" rx="19" fill="none" stroke="#c9822f" stroke-opacity="0.35" stroke-width="1.5"/>
</g>
</svg>